<svg width="48" height="48" viewBox="0 0 48 48" fill="none" xmlns="http://www.w3.org/2000/svg">
  <rect width="48" height="48" rx="12" fill="#E8F7E8"/>
  <path d="M19.25 14C19.8081 14 20.3608 14.1099 20.8764 14.3235C21.392 14.5371 21.8606 14.8501 22.2552 15.2448C22.6499 15.6394 22.9629 16.108 23.1765 16.6236C23.3901 17.1392 23.5 17.6919 23.5 18.25V22.5H19.25C18.1228 22.5 17.0418 22.0522 16.2448 21.2552C15.4478 20.4582 15 19.3772 15 18.25C15 17.1228 15.4478 16.0418 16.2448 15.2448C17.0418 14.4478 18.1228 14 19.25 14ZM19.25 24.5H23.5V28.75C23.5 29.5906 23.2507 30.4123 22.7837 31.1112C22.3168 31.8101 21.653 32.3548 20.8764 32.6765C20.0998 32.9982 19.2453 33.0823 18.4209 32.9183C17.5964 32.7543 16.8392 32.3496 16.2448 31.7552C15.6504 31.1608 15.2457 30.4036 15.0817 29.5791C14.9177 28.7547 15.0018 27.9002 15.3235 27.1236C15.6452 26.347 16.1899 25.6833 16.8888 25.2163C17.5877 24.7493 18.4094 24.5 19.25 24.5ZM29.75 14C30.8772 14 31.9582 14.4478 32.7552 15.2448C33.5522 16.0418 34 17.1228 34 18.25C34 19.3772 33.5522 20.4582 32.7552 21.2552C31.9582 22.0522 30.8772 22.5 29.75 22.5H25.5V18.25C25.5 17.1228 25.9478 16.0418 26.7448 15.2448C27.5418 14.4478 28.6228 14 29.75 14ZM25.5 24.5H29.75C30.5906 24.5 31.4123 24.7493 32.1112 25.2163C32.8101 25.6833 33.3548 26.347 33.6765 27.1236C33.9982 27.9002 34.0823 28.7547 33.9183 29.5791C33.7544 30.4036 33.3496 31.1608 32.7552 31.7552C32.1608 32.3496 31.4036 32.7543 30.5791 32.9183C29.7547 33.0823 28.9002 32.9982 28.1236 32.6765C27.347 32.3548 26.6833 31.8101 26.2163 31.1112C25.7493 30.4123 25.5 29.5906 25.5 28.75V24.5Z" fill="#2A6F50"/>
</svg>