<svg width="48" height="48" viewBox="0 0 48 48" fill="none" xmlns="http://www.w3.org/2000/svg">
  <rect width="48" height="48" rx="12" fill="#E8F7E8"/>
  <path d="M15 15H33C33.2652 15 33.5196 15.1054 33.7071 15.2929C33.8946 15.4804 34 15.7348 34 16V32C34 32.2652 33.8946 32.5196 33.7071 32.7071C33.5196 32.8946 33.2652 33 33 33H15C14.7348 33 14.4804 32.8946 14.2929 32.7071C14.1054 32.5196 14 32.2652 14 32V16C14 15.7348 14.1054 15.4804 14.2929 15.2929C14.4804 15.1054 14.7348 15 15 15ZM16 17V31H32V17H16ZM32 24L28.464 27.536L27.05 26.121L29.172 24L27.05 21.879L28.464 20.464L32 24ZM18.828 24L20.95 26.121L19.536 27.536L16 24L19.536 20.464L20.95 21.88L18.828 24ZM23.244 29H21.116L24.756 19H26.884L23.244 29Z" fill="#1D6E40"/>
</svg>