<svg width="48" height="48" viewBox="0 0 48 48" fill="none" xmlns="http://www.w3.org/2000/svg">
  <rect width="48" height="48" rx="12" fill="#E8F7E8"/>
  <path d="M30.5999 18.2002C29.7075 18.2002 28.9169 18.6094 28.3787 19.2401C28.3919 19.3801 28.3999 19.5231 28.3999 19.6669C28.3999 20.4838 28.1719 21.2472 27.7817 21.9043C28.1227 23.1465 29.2506 24.0669 30.5999 24.0669C32.2177 24.0669 33.5333 22.7513 33.5333 21.1335C33.5333 19.5158 32.2177 18.2002 30.5999 18.2002Z" fill="#2A6F50"/>
  <path d="M19.5999 19.6669C19.5999 19.5231 19.608 19.3801 19.6212 19.2401C19.0829 18.6094 18.2924 18.2002 17.3999 18.2002C15.7822 18.2002 14.4666 19.5158 14.4666 21.1335C14.4666 22.7513 15.7822 24.0669 17.3999 24.0669C18.7492 24.0669 19.8764 23.1465 20.2174 21.9043C19.828 21.2472 19.5999 20.4838 19.5999 19.6669Z" fill="#2A6F50"/>
  <path d="M23.9999 23.3333C21.9781 23.3333 20.3333 21.6885 20.3333 19.6667C20.3333 17.6449 21.9781 16 23.9999 16C26.0217 16 27.6666 17.6449 27.6666 19.6667C27.6666 21.6885 26.0217 23.3333 23.9999 23.3333Z" fill="#2A6F50"/>
  <path d="M17.0744 25.5342H15.2C13.9871 25.5342 13 26.5212 13 27.7342V30.6675C13 31.0731 13.3285 31.4009 13.7333 31.4009H16.6667V27.0008C16.6667 26.4648 16.8221 25.9676 17.0744 25.5342Z" fill="#2A6F50"/>
  <path d="M32.8002 25.5342H30.925C31.178 25.9676 31.3335 26.4648 31.3335 27.0008V31.4009H34.2669C34.6724 31.4009 35.0002 31.0731 35.0002 30.6675V27.7342C35.0002 26.5212 34.0131 25.5342 32.8002 25.5342Z" fill="#2A6F50"/>
  <path d="M29.8659 32.1332H18.1325C17.7277 32.1332 17.3992 31.8054 17.3992 31.3998V26.9998C17.3992 25.7869 18.3862 24.7998 19.5992 24.7998H28.3992C29.6121 24.7998 30.5992 25.7869 30.5992 26.9998V31.3998C30.5992 31.8054 30.2714 32.1332 29.8659 32.1332Z" fill="#2A6F50"/>
</svg>