<svg width="100" height="100" viewBox="0 0 100 100" fill="none" xmlns="http://www.w3.org/2000/svg">
<g filter="url(#filter0_d_1573_85821)">
<rect x="10" width="80" height="80" rx="20" fill="#A52118"/>
</g>
<circle cx="50" cy="40" r="24" fill="black" fill-opacity="0.2"/>
<path d="M44.346 49.2L39 53.4V31.2C39 30.8817 39.1264 30.5765 39.3515 30.3515C39.5765 30.1264 39.8817 30 40.2 30H61.8C62.1183 30 62.4235 30.1264 62.6485 30.3515C62.8736 30.5765 63 30.8817 63 31.2V48C63 48.3183 62.8736 48.6235 62.6485 48.8485C62.4235 49.0736 62.1183 49.2 61.8 49.2H44.346ZM52.698 39.6L55.6668 36.63L53.97 34.9332L51 37.9032L48.03 34.932L46.3332 36.63L49.3032 39.6L46.332 42.57L48.0288 44.2668L51 41.2968L53.97 44.2668L55.6668 42.57L52.6968 39.6H52.698Z" fill="white"/>
<defs>
<filter id="filter0_d_1573_85821" x="0" y="0" width="100" height="100" filterUnits="userSpaceOnUse" color-interpolation-filters="sRGB">
<feFlood flood-opacity="0" result="BackgroundImageFix"/>
<feColorMatrix in="SourceAlpha" type="matrix" values="0 0 0 0 0 0 0 0 0 0 0 0 0 0 0 0 0 0 127 0" result="hardAlpha"/>
<feOffset dy="10"/>
<feGaussianBlur stdDeviation="5"/>
<feComposite in2="hardAlpha" operator="out"/>
<feColorMatrix type="matrix" values="0 0 0 0 0.54902 0 0 0 0 0.160784 0 0 0 0 0.156863 0 0 0 0.2 0"/>
<feBlend mode="normal" in2="BackgroundImageFix" result="effect1_dropShadow_1573_85821"/>
<feBlend mode="normal" in="SourceGraphic" in2="effect1_dropShadow_1573_85821" result="shape"/>
</filter>
</defs>
</svg>